<svg enable-background="new 0 0 100 100" viewBox="0 0 100 100" xmlns="http://www.w3.org/2000/svg"><circle cx="77" cy="13" fill="#f1bc19" r="1"/><circle cx="50" cy="50" fill="#e6edb7" r="37"/><circle cx="83" cy="15" fill="#f1bc19" r="4"/><circle cx="87" cy="24" fill="#88ae45" r="2"/><circle cx="81" cy="76" fill="#fbcd59" r="2"/><circle cx="15" cy="63" fill="#fbcd59" r="4"/><circle cx="25" cy="87" fill="#88ae45" r="2"/><circle cx="18.5" cy="51.5" fill="#fff" r="2.5"/><circle cx="79.5" cy="33.5" fill="#fff" r="1.5"/><path d="m68 72.844-3.188-18.842 13.521-13.359c.155-.153.207-.366.139-.572-.068-.207-.236-.349-.451-.38l-18.678-2.751-8.338-17.125c-.097-.197-.285-.315-.505-.315s-.408.118-.504.315l-8.338 17.125-18.678 2.75c-.215.032-.383.174-.451.38-.067.206-.016.419.139.572l13.521 13.359-3.189 18.843c-.037.215.047.42.225.547.178.128.399.143.591.04l16.684-8.89 16.684 8.89c.193.103.414.088.591-.04.177-.127.261-.331.225-.547z" fill="#f9c941"/><path d="m33.614 73.612 16.886-9.007v-16.068l-17.145 24.784c-.119.173.074.389.259.291z" fill="#f8e55b"/><path d="m41.693 45.38-2.049-.613-.152.476-1.908-.571.177-.462-4.117-1.239-.183.467-10.693-3.2c-.2-.06-.346.187-.198.334l13.68 13.529 14.25-5.564-8.936-2.674z" fill="#f8e55b"/><path d="m78.109 39.877-18.802-2.772-8.807 11.432 11.011-3.295-.154-.476 2-.599.163.473 1.999-.599-.162-.473 3-.897.172.471 9.609-2.876c.204-.061.183-.358-.029-.389z" fill="#f8e55b"/><path d="m50.12 19.781-8.427 17.324 8.807 11.432v-28.669c0-.212-.287-.278-.38-.087z" fill="#f8e55b"/><path d="m58.364 60.785 2.767 4 .394-.279 6.077 8.755c.122.176.397.064.362-.147l-3.214-19.013-14.25-5.564 8.28 11.969z" fill="#f8e55b"/><g fill="#472b29"><path d="m33.502 73.609c-.098 0-.197-.029-.284-.089-.227-.157-.284-.468-.126-.696l16.998-24.572c.157-.227.467-.284.696-.126.227.157.284.468.126.696l-16.998 24.572c-.098.14-.253.215-.412.215z"/><path d="m50.5 20.836 7.918 16.26.324.664.731.108 17.743 2.613-12.852 12.698-.518.512.121.718 3.03 17.905-15.839-8.44-.658-.352-.658.351-15.839 8.44 3.03-17.905.121-.718-.518-.512-12.851-12.696 17.743-2.613.731-.108.324-.664zm0-1.836c-.38 0-.76.199-.954.596l-8.223 16.887-18.417 2.712c-.865.127-1.213 1.188-.591 1.803l13.336 13.176-3.145 18.586c-.115.686.43 1.24 1.047 1.24.165 0 .335-.04.499-.127l16.448-8.765 16.448 8.765c.164.087.334.127.499.127.617 0 1.162-.554 1.046-1.239l-3.145-18.586 13.336-13.176c.622-.615.274-1.675-.591-1.803l-18.417-2.712-8.223-16.887c-.193-.398-.573-.597-.953-.597z"/><path d="m50 20.019h1v28.519h-1z"/><path d="m47.688 42.321h14.431v1h-14.431z" transform="matrix(.6104 -.7921 .7921 .6104 -12.5282 60.1702)"/><path d="m45.596 35.605h1v14.431h-1z" transform="matrix(.7922 -.6103 .6103 .7922 -16.5534 37.0309)"/><path d="m35.726 50.819h15.298v1h-15.298z" transform="matrix(.9317 -.3633 .3633 .9317 -15.6802 19.2643)"/><path d="m50 48.537h1v15.405h-1z"/><path d="m57.125 43.67h1v15.298h-1z" transform="matrix(.3637 -.9315 .9315 .3637 -11.137 86.334)"/><path d="m68.5 43.65c-.215 0-.414-.14-.479-.356-.079-.265.071-.543.335-.623l9.653-2.889c.265-.08.543.072.623.335.079.265-.071.543-.335.623l-9.653 2.889c-.048.015-.097.021-.144.021z"/><path d="m50.5 49.037c-.215 0-.414-.14-.479-.356-.079-.265.071-.543.335-.623l11-3.292c.266-.08.543.071.623.335.079.265-.071.543-.335.623l-11 3.292c-.048.014-.097.021-.144.021z"/><path d="m63.5 45.146c-.215 0-.414-.14-.479-.356-.079-.265.071-.543.335-.623l2-.599c.266-.08.543.071.623.335.079.265-.071.543-.335.623l-2 .599c-.048.015-.097.021-.144.021z"/><path d="m67.498 73.609c-.159 0-.314-.075-.412-.215l-5.955-8.609c-.157-.228-.101-.539.126-.696.228-.158.539-.101.696.126l5.955 8.609c.157.228.101.539-.126.696-.087.06-.186.089-.284.089z"/><path d="m58.776 61c-.159 0-.314-.075-.412-.215l-8.275-11.963c-.157-.228-.101-.539.126-.696.227-.158.538-.101.696.126l8.275 11.963c.157.228.101.539-.126.696-.087.06-.186.089-.284.089z"/><path d="m50.5 49.037c-.047 0-.096-.007-.144-.021l-9-2.693c-.264-.079-.415-.358-.335-.623.079-.264.357-.416.623-.335l9 2.693c.264.079.415.358.335.623-.065.216-.264.356-.479.356z"/><path d="m33.5 43.95c-.047 0-.096-.007-.144-.021l-10.482-3.137c-.264-.079-.415-.358-.335-.623.08-.264.356-.415.623-.335l10.482 3.137c.264.079.415.358.335.623-.065.216-.264.356-.479.356z"/><path d="m39.5 45.745c-.047 0-.096-.007-.144-.021l-2-.599c-.264-.079-.415-.358-.335-.623.079-.264.357-.416.623-.335l2 .599c.264.079.415.358.335.623-.065.216-.264.356-.479.356z"/></g></svg>