<svg viewBox="0 0 100 100" xmlns="http://www.w3.org/2000/svg"><path d="m13 27a2 2 0 1 0 0 4 2 2 0 1 0 0-4z" fill="#78a0cf"/><path d="m77 12a1 1 0 1 0 0 2 1 1 0 1 0 0-2z" fill="#f1bc19"/><path d="m50 13a37 37 0 1 0 0 74 37 37 0 1 0 0-74z" fill="#cee1f4"/><path d="m83 11a4 4 0 1 0 0 8 4 4 0 1 0 0-8z" fill="#f1bc19"/><path d="m87 22a2 2 0 1 0 0 4 2 2 0 1 0 0-4z" fill="#78a0cf"/><path d="m81 74a2 2 0 1 0 0 4 2 2 0 1 0 0-4zm-66-15a4 4 0 1 0 0 8 4 4 0 1 0 0-8z" fill="#fbcd59"/><path d="m25 85a2 2 0 1 0 0 4 2 2 0 1 0 0-4z" fill="#78a0cf"/><path d="m18.5 51a2.5 2.5 0 1 0 0 5 2.5 2.5 0 1 0 0-5z" fill="#fff"/><path d="m21 66a1 1 0 1 0 0 2 1 1 0 1 0 0-2z" fill="#f1bc19"/><path d="m80 33a1 1 0 1 0 0 2 1 1 0 1 0 0-2z" fill="#fff"/><path d="m49.885 70.731 16.912-8.528c1.879-.867 3.035-3.325 2.313-5.348-.578-1.735-2.168-2.746-3.903-2.746-.578 0-1.012.145-1.59.289l-13.876 5.637" fill="#fddbbc"/><path d="m49.887 71.431c-.257 0-.503-.141-.626-.385-.174-.346-.035-.767.31-.94l16.911-8.527c1.644-.759 2.554-2.852 1.969-4.488-.464-1.392-1.735-2.281-3.243-2.281-.389 0-.698.081-1.127.192l-.293.075-13.782 5.606c-.358.146-.766-.027-.912-.385s.026-.767.385-.912l14.249-5.739c.469-.122.911-.238 1.48-.238 2.121 0 3.913 1.266 4.566 3.225.823 2.306-.403 5.153-2.684 6.206l-16.889 8.517c-.101.049-.209.074-.314.074z" fill="#472b29"/><path d="m54.222 72.176 16.912-8.528c1.879-.867 3.035-3.325 2.313-5.348-.578-1.735-2.168-2.746-3.903-2.746-.578 0-1.012.145-1.59.289l-13.877 5.637" fill="#fddbbc"/><path d="m54.223 72.877c-.257 0-.503-.141-.626-.385-.174-.346-.035-.767.31-.94l16.912-8.528c1.644-.759 2.554-2.852 1.969-4.488-.464-1.392-1.735-2.281-3.244-2.281-.389 0-.698.081-1.127.192l-.293.075-13.782 5.607c-.36.146-.767-.026-.912-.385s.026-.767.385-.912l14.249-5.74c.469-.122.911-.238 1.48-.238 2.122 0 3.914 1.266 4.567 3.225.823 2.306-.403 5.153-2.684 6.206l-16.89 8.518c-.101.05-.209.074-.314.074z" fill="#472b29"/><path d="m23.723 52.374 7.805-2.891c1.445-.578 2.891-.723 4.336-.723 2.024 0 4.047.434 5.782 1.445l13.732 7.227c1.735.867 2.313 3.035 1.445 4.77l-.289.578 1.735 1.156 14.165-5.782c.434-.145.867-.289 1.301-.289 1.445 0 2.746.867 3.18 2.168.578 1.59-.289 3.614-1.879 4.336l-16.912 8.528c-.434.289-1.156.434-1.735.434s-1.156-.145-1.735-.434l-21.825-10.116-9.106 3.614" fill="#fddbbc"/><path d="m56.39 74.033c-.686 0-1.374-.171-2.048-.508l-21.534-9.982-8.827 3.502c-.354.146-.766-.032-.908-.393-.143-.359.033-.766.393-.908l9.106-3.613c.177-.072.377-.067.552.016l21.826 10.118c.496.247.975.368 1.44.368.505 0 1.071-.133 1.346-.315l16.985-8.571c1.27-.577 1.989-2.227 1.536-3.473-.338-1.013-1.372-1.707-2.521-1.707-.32 0-.688.123-1.079.253l-14.123 5.767c-.215.086-.459.063-.653-.066l-1.734-1.156c-.293-.195-.396-.579-.237-.896l.289-.578c.72-1.44.212-3.159-1.133-3.831l-13.746-7.236c-1.54-.897-3.418-1.364-5.456-1.364-1.656 0-2.913.207-4.076.673l-7.822 2.897c-.359.137-.766-.051-.899-.413-.135-.362.051-.766.413-.899l7.806-2.892c1.319-.528 2.736-.767 4.579-.767 2.286 0 4.407.533 6.135 1.541l13.705 7.213c2.021 1.011 2.811 3.571 1.745 5.702l-.013.026.911.607 13.822-5.643c.522-.176 1.019-.341 1.565-.341 1.771 0 3.316 1.063 3.844 2.646.702 1.933-.326 4.32-2.253 5.196l-16.887 8.516c-.537.367-1.422.511-2.049.511z" fill="#472b29"/><path d="m56 48.147c-2.975-2.091-13.3-9.789-13.3-15.895 0-3.796 2.716-6.551 6.458-6.551 2.35 0 3.979.877 5.627 3.028l1.215 1.585 1.215-1.585c1.647-2.152 3.277-3.029 5.627-3.029 3.742.002 6.458 2.758 6.458 6.553 0 6.122-10.325 13.808-13.3 15.894z" fill="#ea5167"/><path d="m62.841 26.4c3.39.001 5.758 2.408 5.758 5.853 0 4.518-6.614 10.788-12.599 15.039-5.985-4.257-12.6-10.531-12.6-15.039 0-3.445 2.368-5.851 5.758-5.851 2.131 0 3.553.772 5.072 2.755l.659.859 1.112 1.45 1.111-1.451.659-.86c1.518-1.983 2.94-2.755 5.07-2.755m.001-1.4c-2.56 0-4.409.988-6.183 3.303l-.659.861-.659-.859c-1.774-2.315-3.624-3.303-6.183-3.303-4.149 0-7.158 3.05-7.158 7.251 0 6.765 11.541 15.055 14 16.747 2.461-1.69 14-9.978 14-16.747 0-4.201-3.009-7.251-7.158-7.253z" fill="#472b29"/><path d="m44.458 60.083c-.79-.398-2-1-2-1" fill="#fddbbc"/><path d="m44.458 60.583c-.076 0-.153-.018-.226-.054-.788-.397-1.997-.998-1.997-.999l.445-.895s1.212.602 2.003 1.001c.246.124.345.425.221.672-.088.174-.263.275-.446.275z" fill="#472b29"/><path d="m56.5 62.5c-.708 1.25-2.484 2.217-5 1-1.081-.523-3.308-1.637-5.138-2.558" fill="#fddbbc"/><path d="m53.709 64.56c-.729 0-1.546-.184-2.427-.609-1.082-.523-3.312-1.64-5.145-2.562-.247-.124-.346-.424-.222-.671.123-.248.425-.35.671-.222 1.827.918 4.051 2.032 5.131 2.554 2.259 1.093 3.754.254 4.347-.796.138-.242.444-.326.682-.189.24.137.325.441.189.682-.586 1.035-1.723 1.813-3.226 1.813z" fill="#472b29"/><path d="m62.884 36.705c-2.482 2.671-5.946 5.92-5.946 5.92" fill="#ea5167"/><path d="m56.938 43.125c-.133 0-.267-.053-.364-.158-.189-.201-.18-.518.022-.706.034-.033 3.479-3.269 5.922-5.896.189-.201.505-.213.707-.025s.214.504.025.707c-2.466 2.652-5.936 5.911-5.971 5.943-.096.09-.218.135-.341.135z" fill="#472b29"/><path d="m65.518 30.49c.472.903.479 2.213-.518 3.697" fill="#ea5167"/><path d="m65 34.688c-.097 0-.193-.027-.279-.085-.229-.154-.29-.465-.136-.694.771-1.146.949-2.308.49-3.187-.128-.245-.033-.547.212-.675.245-.126.546-.033.675.212.634 1.214.435 2.748-.547 4.208-.097.143-.255.221-.415.221z" fill="#472b29"/></svg>