<svg fill="#f6e05d" viewBox="0 0 24 24" xmlns="http://www.w3.org/2000/svg"><path d="m4.5878906 3c-.525 0-.9610469.4056875-.9980468.9296875l-.5761719 8.0839845c-.1770433 2.472184 1.6049088 4.597779 3.9863281 4.933594v3.052734h-2c-.552 0-1 .448-1 1s.448 1 1 1h6c.552 0 1-.448 1-1s-.448-1-1-1h-2v-3.052734c2.381426-.335815 4.164407-2.46141 3.988281-4.933594l-.578125-8.0839845c-.038-.524-.473047-.9296875-.998047-.9296875zm12.4121094 0c-.552 0-1 .448-1 1v6h-1.150391l.132813 1.869141c.047.654-.009344 1.3075-.152344 1.9375.372.115.760922.193359 1.169922.193359v7c0 .552.448 1 1 1s1-.448 1-1v-7c2.209 0 4-1.791 4-4v-6c0-.552-.448-1-1-1s-1 .448-1 1v6h-2v-6c0-.552-.448-1-1-1z" fill="#f6e05d"/></svg>