<svg viewBox="0 0 100 100" xmlns="http://www.w3.org/2000/svg"><path d="m13 27a2 2 0 1 0 0 4 2 2 0 1 0 0-4z" fill="#ee3e54"/><path d="m77 12a1 1 0 1 0 0 2 1 1 0 1 0 0-2z" fill="#f1bc19"/><path d="m50 13a37 37 0 1 0 0 74 37 37 0 1 0 0-74z" fill="#fce0a2"/><path d="m83 11a4 4 0 1 0 0 8 4 4 0 1 0 0-8z" fill="#f1bc19"/><path d="m87 22a2 2 0 1 0 0 4 2 2 0 1 0 0-4z" fill="#ee3e54"/><path d="m81 74a2 2 0 1 0 0 4 2 2 0 1 0 0-4zm-66-15a4 4 0 1 0 0 8 4 4 0 1 0 0-8z" fill="#fbcd59"/><path d="m25 85a2 2 0 1 0 0 4 2 2 0 1 0 0-4z" fill="#ee3e54"/><path d="m18.5 51a2.5 2.5 0 1 0 0 5 2.5 2.5 0 1 0 0-5z" fill="#fff"/><path d="m21 66a1 1 0 1 0 0 2 1 1 0 1 0 0-2z" fill="#f1bc19"/><path d="m80 33a1 1 0 1 0 0 2 1 1 0 1 0 0-2z" fill="#fff"/><path d="m31.799 70.3c.322-1.05 1.417-1.642 3.03-2.435l.483-.239 3.387-1.121v-13.207l-.622-.069c-3.438-.388-6.68-2.309-8.671-5.141-1.895-2.693-2.505-6.008-1.718-9.334l1.737-8.963c.123-.632.679-1.091 1.323-1.091h19.19c.644 0 1.201.459 1.323 1.091l1.73 8.935c1.002 4.232-.331 7.364-1.624 9.252-1.917 2.796-5.081 4.743-8.463 5.209l-.604.083v13.235l3.479 1.159.392.201c1.614.793 2.708 1.385 3.03 2.435z" fill="#fffef4"/><path d="m49.939 29.4c.31 0 .577.221.636.524l1.73 8.935.005.028.007.028c.936 3.955-.314 6.896-1.527 8.667-1.807 2.636-4.79 4.472-7.981 4.911l-1.209.166v1.221 12.12 1.009l.957.319 2.909.97.396.195c.878.432 1.521.77 1.963 1.107h-14.649c.441-.337 1.085-.675 1.963-1.107l.396-.195 2.909-.97.957-.319v-1.009-12.077-1.251l-1.243-.14c-3.242-.365-6.298-2.176-8.177-4.846-1.258-1.788-2.559-4.761-1.609-8.771l.007-.028.005-.028 1.73-8.935c.059-.304.326-.524.636-.524h9.595zm0-1.4h-9.595-9.595c-.981 0-1.824.695-2.01 1.658l-1.73 8.935c-1.926 8.129 4.176 14.564 10.991 15.33v12.077l-3 1c-2 1-4 1.791-4 4h19c0-2.209-2-3-4-4l-3-1v-12.12c6.717-.924 12.575-7.282 10.68-15.287l-1.73-8.935c-.187-.963-1.03-1.658-2.011-1.658z" fill="#472b29"/><path d="m65 70.3c-.6 0-1.159-.238-1.575-.67-.416-.433-.633-1.001-.61-1.602l.834-21.676-2.756-1.688c-.717-.618-1.069-1.543-.944-2.483l1.67-13.481h6.764l1.669 13.475c.126.947-.227 1.872-.943 2.49l-2.756 1.688.834 21.677c.022.6-.194 1.168-.61 1.601-.418.431-.977.669-1.577.669z" fill="#88cdd7"/><path d="m67.763 29.4 1.595 12.874c.092.688-.157 1.363-.668 1.826l-2.354 1.441-.7.428.032.819.818 21.267c.016.408-.132.794-.414 1.088-.284.295-.664.457-1.072.457s-.788-.162-1.071-.456-.43-.681-.414-1.088l.818-21.267.032-.819-.7-.428-2.355-1.442c-.511-.463-.759-1.139-.666-1.839l1.593-12.861h2.763zm1.237-1.4h-4-4l-1.745 14.089c-.159 1.189.304 2.377 1.226 3.146l2.452 1.501-.818 21.267c-.063 1.636 1.247 2.997 2.885 2.997s2.948-1.361 2.885-2.998l-.818-21.267 2.452-1.501c.922-.769 1.385-1.956 1.226-3.146z" fill="#472b29"/><path d="m63 28v13h1l.65-13z" fill="#472b29"/><path d="m65.35 28 .65 13h1v-13z" fill="#472b29"/><path d="m51.952 37h-23.216l-.356 1.836c-1.727 7.293 3.748 13.066 9.861 13.753l4.486-.039c6.026-.829 11.281-6.532 9.581-13.714z" fill="#ea5167"/><g fill="#472b29"><path d="m40.5 37h-12c-.276 0-.5-.224-.5-.5s.224-.5.5-.5h12c.276 0 .5.224.5.5s-.224.5-.5.5z"/><path d="m46.5 37h-3c-.276 0-.5-.224-.5-.5s.224-.5.5-.5h3c.276 0 .5.224.5.5s-.224.5-.5.5z"/><path d="m52.5 37h-3c-.276 0-.5-.224-.5-.5s.224-.5.5-.5h3c.276 0 .5.224.5.5s-.224.5-.5.5z"/><path d="m37 49.5c-.069 0-.14-.015-.207-.045-2.334-1.063-4.02-2.687-4.873-4.696-.108-.254.011-.548.265-.655.251-.108.548.011.656.265.754 1.775 2.264 3.22 4.366 4.177.251.114.362.411.248.662-.084.184-.266.292-.455.292z"/><path d="m31.837 42.962c-.253 0-.47-.191-.497-.448-.093-.89-.035-1.775.173-2.632.065-.269.337-.427.604-.368.269.065.433.336.368.604-.181.745-.231 1.517-.151 2.292.029.274-.17.521-.445.549-.017.002-.035.003-.052.003z"/></g></svg>