<svg fill="#fc8081" viewBox="0 0 24 24" xmlns="http://www.w3.org/2000/svg"><path d="m12 .9921875-9.0097656 5.2539063c-.611.357-.9902344 1.0205156-.9902344 1.7285156v10.0253906c0 1.103.897 2 2 2h16c1.103 0 2-.897 2-2v-10.0253906c0-.708-.380188-1.3705157-.992188-1.7285156zm0 2.4726563c.174125 0 .347906.0457187.503906.1367187l7.388672 4.3105469-7.363281 4.5820316c-.323.201-.733641.201-1.056641 0l-7.3652341-4.5820316 7.3886721-4.3105469c.1555-.091.329781-.1367187.503906-.1367187zm0 1.5351562c-.552 0-1 .448-1 1v1h-1c-.552 0-1 .448-1 1s.448 1 1 1h1v1c0 .552.448 1 1 1s1-.448 1-1v-1h1c.552 0 1-.448 1-1s-.448-1-1-1h-1v-1c0-.552-.448-1-1-1z" fill="#fc8081"/></svg>