<svg viewBox="0 0 100 100" xmlns="http://www.w3.org/2000/svg"><path d="m13 27a2 2 0 1 0 0 4 2 2 0 1 0 0-4z" fill="#ee3e54"/><path d="m77 12a1 1 0 1 0 0 2 1 1 0 1 0 0-2z" fill="#f1bc19"/><path d="m50 13a37 37 0 1 0 0 74 37 37 0 1 0 0-74z" fill="#fce0a2"/><path d="m83 11a4 4 0 1 0 0 8 4 4 0 1 0 0-8z" fill="#f1bc19"/><path d="m87 22a2 2 0 1 0 0 4 2 2 0 1 0 0-4z" fill="#ee3e54"/><path d="m81 74a2 2 0 1 0 0 4 2 2 0 1 0 0-4zm-66-15a4 4 0 1 0 0 8 4 4 0 1 0 0-8z" fill="#fbcd59"/><path d="m25 85a2 2 0 1 0 0 4 2 2 0 1 0 0-4z" fill="#ee3e54"/><path d="m18.5 51a2.5 2.5 0 1 0 0 5 2.5 2.5 0 1 0 0-5z" fill="#fff"/><path d="m21 66a1 1 0 1 0 0 2 1 1 0 1 0 0-2z" fill="#f1bc19"/><path d="m80 33a1 1 0 1 0 0 2 1 1 0 1 0 0-2z" fill="#fff"/><path d="m50.333 74.596c-12.646 0-22.633 0-22.633-11.784 0-9.601 7.555-21.358 16.499-25.674l.682-.329-5.846-10.04c-.483-1.65-.28-3.243.561-4.378.647-.875 1.585-1.356 2.641-1.356 1.443 0 2.97.91 4.297 2.562 1.232 1.532 2.558 2.246 4.172 2.246.987 0 2.121-.268 3.567-.841 1.312-.52 2.502-.782 3.539-.782 1.332 0 2.361.45 2.9 1.27.511.775.551 1.808.11 2.832l-5.047 8.483.688.332c8.946 4.313 16.503 16.072 16.503 25.676 0 11.783-9.987 11.783-22.633 11.783z" fill="#00a698"/><path d="m42.236 21.734c1.227 0 2.56.817 3.752 2.3 1.375 1.711 2.875 2.508 4.719 2.508 1.078 0 2.293-.283 3.825-.889 1.23-.487 2.334-.734 3.282-.734 1.088 0 1.91.339 2.315.954.367.557.396 1.316.083 2.094l-4.648 7.824-.78 1.313 1.375.663c8.731 4.21 16.107 15.679 16.107 25.045 0 10.57-7.925 11.085-21.933 11.085s-21.933-.515-21.933-11.085c0-9.364 7.374-20.832 16.103-25.043l1.363-.658-.761-1.308-5.421-9.311c-.392-1.409-.221-2.746.475-3.686.511-.691 1.249-1.072 2.077-1.072m0-1.4c-2.887 0-4.974 3.027-3.849 6.714l5.507 9.458c-9.199 4.44-16.894 16.359-16.894 26.306 0 12.485 10.5 12.485 23.333 12.485s23.333 0 23.333-12.485c0-9.948-7.697-21.869-16.899-26.306l4.698-7.909c1.048-2.435-.207-5.078-3.653-5.078-1.06 0-2.326.25-3.797.833-1.277.506-2.354.791-3.309.791-1.383 0-2.512-.597-3.627-1.985-1.603-1.996-3.333-2.824-4.843-2.824z" fill="#472b29"/><path d="m52.449 59.885c0-.677-.135-1.219-.542-1.49-.406-.406-.948-.677-1.896-1.084-.813-.271-1.625-.677-2.302-.948s-1.219-.677-1.625-1.084c-.406-.406-.813-.948-1.084-1.49s-.406-1.219-.406-2.032c0-1.354.406-2.438 1.219-3.251s2.032-1.354 3.386-1.49v-2.573h1.896v2.573c1.354.135 2.438.813 3.251 1.761s1.219 2.167 1.219 3.792h-3.386c0-.948-.135-1.625-.542-2.167-.406-.542-.948-.677-1.625-.677s-1.219.135-1.49.542c-.406.406-.542.813-.542 1.49 0 .542.135 1.084.542 1.49.406.406.948.677 1.896 1.084.948.406 1.761.677 2.302 1.084.677.271 1.084.677 1.49 1.084.406.406.677.948.948 1.49s.271 1.219.271 1.896c0 1.354-.406 2.438-1.219 3.251s-2.032 1.354-3.521 1.49v2.438h-1.896v-2.304c-1.626-.135-2.845-.812-3.793-1.76s-1.354-2.302-1.354-3.928h3.386c0 .948.271 1.625.677 2.167s1.084.813 1.896.813c.677 0 1.219-.135 1.625-.542.948-.406 1.219-.948 1.219-1.625z" fill="#fff"/><g fill="#472b29"><path d="m38.887 55.811c-.029 0-.058-.002-.088-.006-.383-.048-.656-.397-.608-.781 1.011-8.091 2.615-13.854 5.202-18.687l.367-.687.644.438c5.819 3.953 11.713.165 11.771.127.323-.211.758-.122.969.2.213.323.124.757-.2.97-.065.042-6.301 4.052-12.666.281-2.326 4.583-3.742 9.886-4.697 17.531-.045.355-.347.614-.694.614z"/><path d="m35.296 51.626c-.069 0-.139-.011-.209-.032-.369-.115-.575-.508-.459-.877.108-.346 2.704-8.521 7.951-13.768.273-.273.717-.273.99 0s.273.717 0 .99c-5.006 5.006-7.58 13.114-7.605 13.195-.093.3-.369.492-.668.492zm20.611-21.2c-.084 0-.17-.021-.249-.066-.239-.138-.322-.443-.184-.683l1.642-2.853c.137-.238.443-.32.683-.184.239.138.322.443.184.683l-1.642 2.853c-.093.16-.261.25-.434.25zm5.737 16.106c-.141 0-.281-.06-.38-.175-.794-.928-1.603-1.729-2.401-2.379-.214-.174-.246-.489-.072-.703.174-.215.49-.246.704-.072.845.688 1.696 1.53 2.529 2.504.18.21.155.525-.055.705-.094.081-.21.12-.325.12zm-10.616-7.636c-.084 0-.17-.021-.249-.066-.239-.138-.322-.443-.184-.683l3.583-6.223c.137-.239.443-.322.683-.185s.322.443.184.683l-3.583 6.223c-.092.161-.261.251-.434.251z"/><path d="m57.247 42.524c-.112 0-.224-.037-.317-.114-2.843-2.341-5.387-3.459-5.412-3.47-.253-.11-.37-.404-.26-.658.109-.253.401-.371.657-.26.108.047 2.691 1.18 5.65 3.616.213.176.244.49.068.703-.099.121-.242.183-.386.183zm7.864 28.173c-.241 0-.453-.175-.493-.42-.044-.272.141-.529.414-.573 2.86-.464 3.755-2.438 4.181-3.883.558-1.897.319-4.79-.693-8.364-.437-1.544-1.342-3.382-2.69-5.463-.15-.231-.084-.541.147-.691.231-.148.541-.084.691.148 1.403 2.165 2.349 4.094 2.813 5.734 1.079 3.809 1.311 6.81.69 8.919-.289.981-1.167 3.968-4.979 4.586-.028.005-.055.007-.081.007zm-.226-20.411c-.166 0-.329-.083-.423-.233-.374-.594-.738-1.014-1.542-1.899-.186-.205-.17-.521.035-.706.205-.186.521-.17.707.034.826.912 1.232 1.381 1.646 2.038.147.233.077.542-.156.689-.084.053-.176.077-.267.077z"/><path d="m35.204 33.734c1.895 0 4.576 1.294 6.168 2.423-1.116.457-2.837.893-4.617.893-1.442 0-2.571-.316-3.022-.845-.09-.106-.364-.427-.239-1.211.149-.757.497-1.26 1.71-1.26m0-1.401c-1.525 0-2.738.642-3.083 2.389-.446 2.773 1.913 3.728 4.634 3.728 2.813 0 6.013-1.02 6.903-2.107-1.082-1.428-5.395-4.01-8.454-4.01z"/></g></svg>