<svg fill="#4fd1c5" viewBox="0 0 24 24" xmlns="http://www.w3.org/2000/svg"><path d="m12 1c-.884916 0-1.671627.3906671-2.2207031 1h-1.7773438c-.683 0-1.1652187.6694063-.9492187 1.3164062l.4453125 1.3417969c.068.204.2615625.3417969.4765625.3417969h4.0253906 4.025391c.215 0 .406609-.1377969.474609-.3417969l.447266-1.3417969c.217-.647-.266219-1.3164062-.949219-1.3164062h-1.777344c-.549076-.6093329-1.335787-1-2.220703-1zm-4 6s-6 3.014-6 10c0 .835.102875 1.576375.296875 2.234375.491 1.664 2.0755469 2.765625 3.8105469 2.765625h11.7851561c1.735 0 3.319547-1.101625 3.810547-2.765625.194-.658.296875-1.399375.296875-2.234375 0-6.985-6-10-6-10zm4.320312 1.7128906h.00586c.252 0 .457031.2050313.457031.4570313v.8710941c.243.046 1.410734.311578 1.802735 1.767578.144.536-.272172 1.060547-.826172 1.060547-.396 0-.746078-.273157-.830078-.660157-.143001-.667-.504313-.789062-.695313-.789062-.189 0-.6875.030594-.6875 1.058594 0 1.794 3.154297 1.235156 3.154297 4.160156 0 2.124-1.743734 2.410219-2.052734 2.449219v.755859c0 .252-.205032.457031-.457032.457031s-.457031-.205031-.457031-.457031v-.755859c-.241-.033-1.653125-.189797-2.078125-1.841797-.137-.532.2810781-1.046875.830078-1.046875h.001953c.394 0 .750031.266344.832031.652343.189001.887001.763235.841797.865235.841797.134 0 .792969-.024968.792969-1.042968 0-2.034-3.1562504-1.130688-3.1562504-4.179688 0-2.09 1.7320154-2.416078 2.0410154-2.455078v-.8457031c0-.252.205031-.4570313.457031-.4570313z" fill="#4fd1c5"/></svg>