<svg fill="#fff" viewBox="0 0 24 24" xmlns="http://www.w3.org/2000/svg"><path d="m5.4160156 2.328125 7.5195314 7.830078c.197.205.523703.205.720703 0l1.523438-1.5839842c.226-.235.174624-.6173438-.109376-.7773438-3.932999-2.225-8.8082964-4.98575-9.6542964-5.46875zm-2.2753906.5195312c-.085.198-.140625.4152501-.140625.65625v17.0878908c0 .197.044375.378828.109375.548828l8.466797-8.816406c.186-.193.186-.497406 0-.691407zm14.302734 6.4101563c-.107875.015125-.210062.0659375-.289062.1484375l-2.138672 2.226562c-.186.193-.186.497407 0 .691407l2.119141 2.205078c.158.165.411375.199891.609375.087891 1.483-.84 2.482422-1.404297 2.482421-1.404297.499-.303.780438-.769344.773438-1.277344-.008-.496-.297391-.953609-.775391-1.224609-.061-.034001-1.036937-.586579-2.460937-1.3925786-.0995-.056-.212438-.0756719-.320313-.0605469zm-4.146484 4.3867185c-.131 0-.262828.051797-.361328.154297l-7.4609376 7.767578c1.282-.729 5.8541716-3.316828 9.5761716-5.423828.284-.161.335375-.543297.109375-.779297l-1.503906-1.564453c-.0985-.1025-.228375-.154297-.359375-.154297z" fill="#fff"/></svg>