<svg fill="#fff" viewBox="0 0 24 24" xmlns="http://www.w3.org/2000/svg"><path d="m12 2c-5.514 0-10 4.486-10 10s4.486 10 10 10 10-4.486 10-10-4.486-10-10-10zm-1.485 4.126c.481-.27 1.091-.094 1.359.389l.126.226.126-.227c.268-.482.877-.658 1.359-.389.483.269.657.877.389 1.359l-2.508 4.516h-1.631c-.295 0-.481-.316-.338-.574l1.459-2.626-.73-1.315c-.269-.482-.095-1.09.389-1.359zm-.816 8.874-.825 1.485c-.183.329-.523.515-.875.515-.164 0-.331-.04-.484-.126-.483-.269-.657-.877-.389-1.359l.286-.515h-.412c-.553 0-1-.447-1-1s.447-1 1-1h5.046l.792 1.426c.143.258-.043.574-.338.574zm7.301 0h-.412l.286.515c.269.482.095 1.091-.389 1.359-.153.086-.32.126-.484.126-.352 0-.692-.186-.875-.515l-2.554-4.597.806-1.451c.147-.265.528-.265.675 0l1.424 2.563h1.523c.553 0 1 .447 1 1s-.447 1-1 1z" fill="#fff"/></svg>