<svg viewBox="0 0 100 100" xmlns="http://www.w3.org/2000/svg"><path d="m77 12a1 1 0 1 0 0 2 1 1 0 1 0 0-2z" fill="#f1bc19"/><path d="m50 13a37 37 0 1 0 0 74 37 37 0 1 0 0-74z" fill="#e4e4f9"/><path d="m83 11a4 4 0 1 0 0 8 4 4 0 1 0 0-8z" fill="#f1bc19"/><path d="m87 22a2 2 0 1 0 0 4 2 2 0 1 0 0-4z" fill="#8889b9"/><path d="m81 74a2 2 0 1 0 0 4 2 2 0 1 0 0-4zm-66-15a4 4 0 1 0 0 8 4 4 0 1 0 0-8z" fill="#fbcd59"/><path d="m25 85a2 2 0 1 0 0 4 2 2 0 1 0 0-4z" fill="#8889b9"/><path d="m79.5 32a1.5 1.5 0 1 0 0 3 1.5 1.5 0 1 0 0-3z" fill="#fff"/><path d="m35.447 69.3c-3.169 0-5.747-2.344-5.747-5.226v-33.374h34.6v33.374c0 2.882-2.578 5.226-5.747 5.226z" fill="#ee3e54"/><path d="m63.6 31.4v32.675c0 2.495-2.264 4.526-5.048 4.526h-23.104c-2.783 0-5.048-2.03-5.048-4.526v-32.675zm1.4-1.4h-36v34.074c0 3.26 2.902 5.926 6.448 5.926h23.105c3.546 0 6.447-2.667 6.447-5.926z" fill="#472b29"/><path d="m30.436 31.457h33.147v3.081h-33.147z" fill="#f26b79"/><path d="m30.333 61.315.005 2.037c0 2.952 2.723 5.148 6.057 5.148h21.725c3.335 0 6.059-2.162 6.014-5.169l.003-2.07z" fill="#f4516d"/><path d="m54.96 36.975a2 2 0 1 0 0 4 2 2 0 1 0 0-4z" fill="#aa1737"/><path d="m54.96 41.476c-1.379 0-2.5-1.121-2.5-2.5s1.121-2.5 2.5-2.5 2.5 1.121 2.5 2.5-1.121 2.5-2.5 2.5zm0-4c-.827 0-1.5.673-1.5 1.5s.673 1.5 1.5 1.5 1.5-.673 1.5-1.5-.673-1.5-1.5-1.5z" fill="#472b29"/><path d="m38.96 36.975a2 2 0 1 0 0 4 2 2 0 1 0 0-4z" fill="#aa1737"/><path d="m38.96 41.476c-1.379 0-2.5-1.121-2.5-2.5s1.121-2.5 2.5-2.5 2.5 1.121 2.5 2.5-1.121 2.5-2.5 2.5zm0-4c-.827 0-1.5.673-1.5 1.5s.673 1.5 1.5 1.5 1.5-.673 1.5-1.5-.673-1.5-1.5-1.5z" fill="#472b29"/><path d="m36.076 69.859c-.018 0-.035-.003-.051-.01-.071-.028-.106-.111-.078-.182l3.203-8.116c.029-.071.113-.106.182-.079.071.028.106.111.078.182l-3.203 8.116c-.023.055-.075.089-.131.089z" fill="#472b29"/><path d="m37.468 69.859c-.018 0-.035-.003-.051-.01-.071-.028-.106-.111-.078-.182l3.203-8.116c.029-.071.111-.106.182-.079.071.028.106.111.078.182l-3.203 8.116c-.022.055-.075.089-.131.089z" fill="#472b29"/><path d="m38.861 69.859c-.018 0-.035-.003-.051-.01-.071-.028-.106-.111-.078-.182l3.203-8.116c.029-.071.111-.106.182-.079.071.028.106.111.078.182l-3.203 8.116c-.023.055-.075.089-.131.089z" fill="#472b29"/><path d="m40.254 69.859c-.018 0-.035-.003-.051-.01-.071-.028-.106-.111-.078-.182l3.203-8.116c.029-.071.111-.106.182-.079.071.028.106.111.078.182l-3.203 8.116c-.023.055-.076.089-.131.089z" fill="#472b29"/><path d="m41.646 69.859c-.018 0-.035-.003-.051-.01-.071-.028-.106-.111-.078-.182l3.203-8.116c.029-.071.113-.106.182-.079.071.028.106.111.078.182l-3.203 8.116c-.024.055-.076.089-.131.089z" fill="#472b29"/><path d="m56.25 60.19a7.566 7.624 0 1 0 0 15.248 7.566 7.624 0 1 0 0-15.248z" fill="#fbcd59"/><path d="m56.25 76c-4.48 0-8.124-3.672-8.124-8.185s3.644-8.186 8.124-8.186 8.124 3.672 8.124 8.186-3.644 8.185-8.124 8.185zm0-15.249c-3.865 0-7.01 3.168-7.01 7.064 0 3.894 3.144 7.063 7.01 7.063s7.01-3.168 7.01-7.063c0-3.896-3.144-7.064-7.01-7.064z" fill="#472b29"/><path d="m56.25 62.828a4.948 4.986 0 1 0 0 9.972 4.948 4.986 0 1 0 0-9.972z" fill="#f1bc19"/><path d="m56.25 73.08c-2.881 0-5.225-2.362-5.225-5.265 0-2.904 2.344-5.266 5.225-5.266s5.225 2.362 5.225 5.266c.001 2.903-2.343 5.265-5.225 5.265zm0-9.971c-2.575 0-4.668 2.111-4.668 4.705s2.095 4.704 4.668 4.704c2.574 0 4.668-2.111 4.668-4.704.001-2.595-2.093-4.705-4.668-4.705z" fill="#472b29"/><path d="m68.877 53.786a7.566 7.624 0 1 0 0 15.248 7.566 7.624 0 1 0 0-15.248z" fill="#fbcd59"/><path d="m68.876 69.596c-4.48 0-8.124-3.672-8.124-8.186s3.644-8.185 8.124-8.185 8.124 3.672 8.124 8.185-3.644 8.186-8.124 8.186zm0-15.248c-3.865 0-7.01 3.168-7.01 7.063 0 3.896 3.144 7.064 7.01 7.064s7.01-3.168 7.01-7.064c0-3.895-3.144-7.063-7.01-7.063z" fill="#472b29"/><path d="m68.877 56.424a4.948 4.986 0 1 0 0 9.972 4.948 4.986 0 1 0 0-9.972z" fill="#f1bc19"/><g fill="#472b29"><path d="m68.876 66.675c-2.881 0-5.225-2.362-5.225-5.265s2.344-5.265 5.225-5.265 5.226 2.362 5.226 5.265-2.344 5.265-5.226 5.265zm0-9.97c-2.575 0-4.668 2.111-4.668 4.704s2.094 4.704 4.668 4.704c2.575 0 4.669-2.111 4.669-4.704s-2.094-4.704-4.669-4.704z"/><path d="m68.118 62.742c.007 0 .02.007.041.02l-.01-.006c.099.068.188.123.266.163.079.039.163.067.251.085v-1.605l-.092-.052c-.113-.062-.221-.127-.323-.196-.103-.07-.195-.145-.276-.227-.082-.082-.152-.171-.207-.263-.057-.093-.095-.194-.116-.304-.013-.055-.021-.107-.023-.155-.001-.048-.002-.1-.002-.155 0-.162.027-.303.079-.423.053-.12.126-.223.218-.308s.202-.152.328-.202c.126-.049.265-.083.414-.1v-.144c0-.068.016-.127.047-.175s.087-.072.169-.072h.021c.177 0 .275.088.292.263l-.004.139c.096.017.194.044.294.08.101.036.214.082.341.137l-.014-.01c.058.02.103.046.136.077.032.031.052.081.059.149v.031c0 .025-.007.055-.018.093-.012.038-.03.074-.053.109-.025.035-.051.065-.082.09-.031.026-.065.039-.103.039-.031 0-.059-.003-.085-.008-.026-.004-.056-.02-.089-.044v.004l-.057-.031c-.099-.052-.208-.093-.328-.123v1.409l.02.01c.276.141.49.298.641.469.15.172.25.35.297.537.02.079.035.152.043.217.009.065.013.132.013.201 0 .158-.026.301-.077.429-.051.127-.121.238-.209.333-.089.094-.196.172-.32.232-.125.061-.261.101-.408.121v.372c0 .068-.013.127-.041.175-.027.048-.084.072-.169.072h-.031c-.086 0-.154-.024-.205-.07-.051-.047-.077-.115-.077-.203v-.346c-.184-.02-.343-.062-.476-.123-.134-.062-.27-.139-.41-.232-.038-.03-.064-.061-.077-.088s-.029-.065-.046-.113v-.031c0-.03.009-.066.028-.106s.041-.077.069-.113.057-.067.087-.093c.031-.026.06-.038.087-.038.038 0 .071.011.1.034s.057.045.085.07l.002-.001c.007.003.011.004.014.004zm.264-2.194c.08.075.175.143.284.201v-1.131c-.129.028-.238.081-.325.161s-.13.186-.13.32c0 .02.001.044.002.067.002.024.006.054.013.088.024.12.076.218.156.294zm1.053 1.359c-.068-.084-.15-.157-.246-.219v1.285c.119-.048.219-.122.3-.222.08-.1.12-.217.12-.35 0-.038-.003-.072-.01-.103s-.013-.064-.02-.099c-.028-.11-.076-.206-.144-.292z"/><path d="m55.453 69.146c.007 0 .02.007.041.02l-.01-.006c.099.068.188.123.266.163.079.039.163.067.251.085v-1.605l-.092-.052c-.113-.062-.221-.127-.323-.196-.102-.07-.195-.145-.276-.227-.082-.082-.152-.171-.207-.263-.057-.093-.095-.194-.116-.304-.013-.055-.021-.107-.023-.155-.001-.048-.002-.1-.002-.155 0-.162.027-.303.079-.423.053-.12.126-.223.218-.308.092-.084.202-.152.328-.202.126-.049.265-.083.414-.1v-.145c0-.068.016-.127.047-.175s.087-.072.169-.072h.021c.177 0 .275.088.292.263l-.004.139c.096.017.194.044.294.08.101.036.214.082.341.137l-.014-.01c.058.02.102.046.136.077.032.031.052.081.059.149v.031c0 .025-.007.055-.018.093-.012.038-.03.074-.053.109-.025.035-.051.065-.082.09-.031.026-.065.039-.102.039-.031 0-.059-.003-.085-.008-.026-.004-.056-.02-.089-.044v.004l-.057-.031c-.099-.052-.208-.093-.328-.123v1.409l.02.01c.276.141.49.298.641.469.15.172.25.35.297.537.02.079.035.152.043.217s.013.132.013.201c0 .158-.026.301-.077.429-.051.127-.121.238-.209.333-.089.094-.196.172-.32.232-.125.061-.261.101-.408.121v.372c0 .068-.013.127-.041.175-.027.048-.084.072-.169.072h-.031c-.086 0-.154-.024-.205-.07s-.077-.115-.077-.203v-.346c-.184-.02-.343-.062-.476-.123-.134-.062-.27-.139-.41-.232-.038-.03-.064-.061-.077-.088s-.029-.065-.046-.113v-.031c0-.03.009-.066.028-.106s.041-.077.069-.113.057-.067.087-.093c.031-.026.06-.038.087-.038.038 0 .071.011.1.034.029.022.057.045.085.07h.001c.007.003.011.004.014.004zm.264-2.195c.08.075.175.143.284.201v-1.131c-.129.028-.238.081-.325.161s-.13.186-.13.32c0 .02.001.044.002.067s.006.054.013.088c.024.122.076.219.156.294zm1.053 1.361c-.068-.084-.15-.157-.246-.219v1.285c.119-.048.219-.122.3-.222s.12-.217.12-.35c0-.038-.003-.072-.01-.103s-.013-.064-.02-.099c-.028-.111-.076-.208-.144-.292z"/><path d="m55 39.5c-.276 0-.5-.224-.5-.5v-7.836c0-3.675-3.364-6.664-7.5-6.664s-7.5 2.989-7.5 6.664v7.836c0 .276-.224.5-.5.5s-.5-.224-.5-.5v-7.836c0-4.226 3.813-7.664 8.5-7.664s8.5 3.438 8.5 7.664v7.836c0 .276-.224.5-.5.5z"/><path d="m58.5 35h-29c-.276 0-.5-.224-.5-.5s.224-.5.5-.5h29c.276 0 .5.224.5.5s-.224.5-.5.5z"/><path d="m51.5 62h-18c-.276 0-.5-.224-.5-.5s.224-.5.5-.5h18c.276 0 .5.224.5.5s-.224.5-.5.5z"/><path d="m64.5 35h-4c-.276 0-.5-.224-.5-.5s.224-.5.5-.5h4c.276 0 .5.224.5.5s-.224.5-.5.5z"/></g></svg>