<svg viewBox="0 0 100 100" xmlns="http://www.w3.org/2000/svg"><path d="m77 12a1 1 0 1 0 0 2 1 1 0 1 0 0-2z" fill="#f1bc19"/><path d="m50 13a37 37 0 1 0 0 74 37 37 0 1 0 0-74z" fill="#e4e4f9"/><path d="m83 11a4 4 0 1 0 0 8 4 4 0 1 0 0-8z" fill="#f1bc19"/><path d="m87 22a2 2 0 1 0 0 4 2 2 0 1 0 0-4z" fill="#8889b9"/><path d="m81 74a2 2 0 1 0 0 4 2 2 0 1 0 0-4zm-66-15a4 4 0 1 0 0 8 4 4 0 1 0 0-8z" fill="#fbcd59"/><path d="m25 85a2 2 0 1 0 0 4 2 2 0 1 0 0-4z" fill="#8889b9"/><path d="m18.5 49a2.5 2.5 0 1 0 0 5 2.5 2.5 0 1 0 0-5zm61-17a1.5 1.5 0 1 0 0 3 1.5 1.5 0 1 0 0-3z" fill="#fff"/><path d="m21.812 35.173 21.914 1.412s3.495-.605 6.52 2.42 17.141 18.754 17.141 18.754.874 2.689-.739 3.966-3.63.269-3.63.269.739 2.151-.202 3.361-2.42 1.68-3.63 1.479c-1.21-.202-.269 2.42-1.008 3.227s-2.42 1.613-3.495 1.277c-1.076-.336-.202 1.748-1.008 2.487-.807.739-2.353 1.479-3.428.605-1.076-.875-17.814-20.1-17.814-20.1l-10.419.067z" fill="#f5ce85"/><path d="m76.664 34.971-22.788 1.68-1.949.672-10.486 10.15-.269 1.68 3.899 2.622 3.092-.067 2.823-1.344 4.974-4.84 12.1 12.839s2.958-1.008 3.966-3.563c1.815.068 4.974-.134 4.974-.134z" fill="#ffc49c"/><path d="m46.519 52.607c-2.803 0-4.597-1.906-5.305-2.658l-.179-.188c-.901-.902-.299-2.292.199-2.971.024-.032.05-.063.08-.091.377-.362 9.25-8.891 10.058-9.608.993-.883 1.837-1.253 4.498-1.253 2.543 0 20.026-1.328 20.202-1.342.38-.024.722.259.751.646.03.385-.259.722-.645.751-.722.055-17.713 1.346-20.309 1.346-2.558 0-2.959.357-3.568.898-.758.674-9.247 8.83-9.97 9.525-.243.357-.475.94-.307 1.108l.208.218c.933.99 3.114 3.308 6.801 1.613 4.202-1.933 6.375-5.928 6.397-5.968.13-.244.396-.385.667-.369l5.019.358c.386.027.676.362.648.748s-.358.67-.748.648l-4.583-.327c-.697 1.14-2.945 4.4-6.815 6.181-1.139.527-2.174.735-3.099.735z" fill="#472b29"/><path d="m51.492 75.305c-.129 0-.259-.008-.389-.023-.741-.086-1.396-.431-1.798-.945l-16.787-19.262h-9.809c-.387 0-.7-.313-.7-.7s.313-.7.7-.7h10.127c.202 0 .395.088.528.24l17.021 19.53c.194.247.515.403.881.446.326.037.976.021 1.657-.525.884-.707.426-1.736.075-2.287-.184-.288-.133-.666.12-.896.252-.229.633-.242.902-.032 1.009.792 2.447.71 3.345-.188s.979-2.336.187-3.344c-.219-.279-.195-.677.056-.928.251-.25.649-.272.927-.056 1.009.791 2.447.71 3.345-.188s.979-2.336.187-3.345c-.219-.279-.195-.677.056-.928.251-.252.649-.273.927-.056 1.009.793 2.448.711 3.345-.187.987-.987.987-2.593 0-3.58l-10.932-10.997c-.272-.274-.271-.717.003-.989.273-.273.717-.271.99.003l10.93 10.999c1.531 1.531 1.531 4.025-.001 5.559-.924.923-2.211 1.29-3.431 1.084.209 1.219-.161 2.507-1.084 3.431s-2.215 1.295-3.431 1.084c.209 1.219-.161 2.507-1.084 3.431-.951.949-2.289 1.313-3.538 1.064.107.949-.237 1.815-1.02 2.441-.688.55-1.494.844-2.305.844zm-1.537-35.376c-.173 0-.346-.063-.481-.191-1.282-1.212-3.01-2.318-6.942-2.229-3.845.072-19.754-1.462-20.43-1.528-.385-.037-.666-.38-.628-.765s.382-.672.765-.628c.165.016 16.485 1.622 20.261 1.521 3.596-.078 5.885.674 7.936 2.611.281.266.293.709.028.989-.138.145-.323.22-.509.22z" fill="#472b29"/><path d="m47.154 68.514c-.009 0-.018.003-.027.003.007-.091.027-.179.027-.272 0-1.93-1.565-3.495-3.495-3.495-.334 0-.65.062-.956.149.087-.306.149-.622.149-.956 0-1.93-1.565-3.495-3.495-3.495-.392 0-.763.079-1.115.199.197-.476.309-.996.309-1.543 0-2.228-1.806-4.033-4.033-4.033s-4.033 1.806-4.033 4.033 1.806 4.033 4.033 4.033c.547 0 1.067-.111 1.543-.309-.119.352-.199.723-.199 1.115 0 1.93 1.565 3.495 3.495 3.495.334 0 .65-.062.956-.149-.087.306-.149.622-.149.956 0 1.93 1.565 3.495 3.495 3.495.093 0 .18-.02.272-.027 0 .009-.003.018-.003.027 0 1.782 1.445 3.227 3.227 3.227s3.227-1.445 3.227-3.227-1.446-3.226-3.228-3.226z" fill="#ffc49c"/><g fill="#472b29"><path d="m47.154 75.667c-1.932 0-3.542-1.402-3.867-3.243-2.14-.188-3.824-1.991-3.824-4.179 0-.036.001-.072.002-.108-2.353.053-4.304-1.845-4.304-4.194 0-.05.001-.101.003-.151-.214.03-.43.045-.647.045-2.61 0-4.733-2.123-4.733-4.733s2.124-4.733 4.733-4.733 4.733 2.123 4.733 4.733c0 .218-.015.434-.045.647 2.382-.094 4.347 1.829 4.347 4.192 0 .036-.001.072-.002.108 2.246-.034 4.096 1.647 4.287 3.822 1.84.324 3.243 1.936 3.243 3.867.001 2.165-1.761 3.927-3.926 3.927zm-2.523-4.708-.011.879c.008 1.296 1.141 2.429 2.534 2.429s2.526-1.133 2.526-2.526c0-1.377-1.107-2.5-2.478-2.526l-.076.003h-.758l.077-.901c.008-1.612-1.246-2.866-2.787-2.866-.23 0-.473.039-.763.122l-1.213.349.347-1.214c.083-.292.122-.535.122-.764 0-1.541-1.254-2.795-2.795-2.795-.279 0-.57.053-.891.161l-1.303.44-.44 1.302c-.109.323-.162.614-.162.892 0 1.542 1.254 2.796 2.795 2.796.227 0 .47-.039.764-.122l1.21-.345-.346 1.21c-.083.291-.122.533-.122.764 0 1.541 1.254 2.795 2.795 2.795zm-10.114-15.189c-1.838 0-3.333 1.495-3.333 3.333s1.495 3.333 3.333 3.333c.438 0 .867-.086 1.275-.255l1.274-.528.529-1.275c.169-.408.255-.837.255-1.274 0-1.839-1.495-3.334-3.333-3.334zm33.184 3.428c-.315 0-.602-.215-.68-.535-.091-.375.138-.752.513-.845.12-.03 2.96-.77 3.895-3.575l.16-.479h4.807c.387 0 .7.313.7.7s-.313.7-.7.7h-3.818c-1.327 3.156-4.566 3.979-4.71 4.013-.057.014-.113.021-.167.021zm-4.302 3.764c-.175 0-.35-.065-.485-.196l-4.84-4.66c-.279-.268-.287-.711-.019-.989.27-.278.711-.287.99-.019l4.84 4.66c.279.268.287.711.019.989-.138.143-.321.215-.505.215zm-4.683 4.526c-.175 0-.35-.065-.485-.196l-4.84-4.66c-.279-.268-.287-.711-.019-.989.269-.278.711-.287.99-.019l4.84 4.66c.279.268.287.711.019.989-.138.143-.321.215-.505.215zm-4.477 4.481c-.197 0-.394-.083-.532-.244l-3.551-4.142c-.252-.294-.218-.735.076-.987.293-.252.736-.218.987.075l3.551 4.142c.252.294.218.735-.076.987-.131.113-.294.169-.455.169z"/><path d="m72.271 55.183c-.002 0-.004 0-.007 0-.387-.004-.697-.32-.693-.707l.06-6.226c.004-.384.316-.693.7-.693h.007c.387.004.697.32.693.707l-.06 6.226c-.004.383-.317.693-.7.693z"/><path d="m49.387 62.783c-.128 0-.256-.049-.354-.146l-1.377-1.377c-.195-.195-.195-.512 0-.707s.512-.195.707 0l1.377 1.377c.195.195.195.512 0 .707-.097.097-.225.146-.353.146z"/><path d="m53.762 58.199c-.128 0-.256-.049-.354-.146l-1.377-1.376c-.195-.195-.195-.512 0-.707s.512-.195.707 0l1.377 1.376c.195.195.195.512 0 .707-.097.097-.225.146-.353.146z"/><path d="m58.137 53.616c-.128 0-.256-.049-.354-.146l-1.377-1.377c-.195-.195-.195-.512 0-.707s.512-.195.707 0l1.377 1.377c.195.195.195.512 0 .707-.097.097-.225.146-.353.146z"/></g></svg>